# xmcd
#
# Track frame offsets: 
#        150
#        13252
#        27037
#        42975
#        54860
#        68760
#        84162
#        103015
#        118395
#        136542
#        158667
#
# Disc length: 2315 seconds
#
# Revision: 3
# Processed by: cddbd v1.4PL0 Copyright (c) Steve Scherf et al.
# Submitted via: ExactAudioCopy v0.90b4
#
DISCID=8009090b
DTITLE=Stephanie Bentley - Hopechest
DYEAR=1996
DGENRE=Country
TTITLE0=I'm Listening
TTITLE1=Who's That Girl
TTITLE2=Once I Was The Light Of Your Life
TTITLE3=What's Wrong With You (Is You Ain't Got Me)
TTITLE4=Half The Moon
TTITLE5=Permanent Hurt
TTITLE6=The Hopechest Song
TTITLE7=If Promises Were Gold
TTITLE8=Dead Ringer
TTITLE9=Heart Half Empty (Duet With Ty Herndon)
TTITLE10=Think Of Me
EXTD=YEAR: 1996
EXTT0=
EXTT1=
EXTT2=
EXTT3=
EXTT4=
EXTT5=
EXTT6=
EXTT7=
EXTT8=
EXTT9=
EXTT10=
PLAYORDER=
